<svg xmlns="http://www.w3.org/2000/svg" viewBox="0 0 900 675" width="900" height="675" role="img" aria-label="Cerveja Premium"><defs><linearGradient id="bp-cerveja-premium" x1="0" y1="0" x2="0.7" y2="1"><stop offset="0" stop-color="#1E1610"/><stop offset="1" stop-color="#0B0908"/></linearGradient><radialGradient id="gp-cerveja-premium" cx="56%" cy="96%" r="78%"><stop offset="0" stop-color="#C1440E" stop-opacity="0.465"/><stop offset="0.42" stop-color="#C1440E" stop-opacity="0.112"/><stop offset="1" stop-color="#C1440E" stop-opacity="0"/></radialGradient><radialGradient id="tp-cerveja-premium" cx="24%" cy="8%" r="66%"><stop offset="0" stop-color="#D9A441" stop-opacity="0.09"/><stop offset="1" stop-color="#D9A441" stop-opacity="0"/></radialGradient><radialGradient id="vp-cerveja-premium" cx="50%" cy="50%" r="76%"><stop offset="0.45" stop-color="#000" stop-opacity="0"/><stop offset="1" stop-color="#000" stop-opacity="0.55"/></radialGradient><pattern id="pp-cerveja-premium" width="8" height="8" patternUnits="userSpaceOnUse" patternTransform="rotate(24)"><line x1="0" y1="0" x2="0" y2="8" stroke="#F2E9DC" stroke-opacity="0.03" stroke-width="1"/></pattern></defs><rect width="900" height="675" fill="url(#bp-cerveja-premium)"/><rect width="900" height="675" fill="url(#pp-cerveja-premium)"/><rect width="900" height="675" fill="url(#gp-cerveja-premium)"/><rect width="900" height="675" fill="url(#tp-cerveja-premium)"/><g transform="translate(385.9 246.4) scale(5.344)" fill="none" stroke="#B87333" stroke-opacity="0.36" stroke-width="2.16" stroke-linecap="round" stroke-linejoin="round"><path d="M6 6.6h9.2v12.8H6z"/><path d="M15.2 9h2.4a2 2 0 0 1 2 2v3a2 2 0 0 1-2 2h-2.4"/><path d="M8.6 6.6V4.4"/><path d="M12.6 6.6V4.4"/><path d="M6 10.4h9.2"/></g><rect width="900" height="675" fill="url(#vp-cerveja-premium)"/></svg>