<svg xmlns="http://www.w3.org/2000/svg" viewBox="0 0 900 675" width="900" height="675" role="img" aria-label="Wotan Burger"><defs><linearGradient id="bp-wotan-burger" x1="0" y1="0" x2="0.7" y2="1"><stop offset="0" stop-color="#1E1610"/><stop offset="1" stop-color="#0B0908"/></linearGradient><radialGradient id="gp-wotan-burger" cx="38%" cy="96%" r="78%"><stop offset="0" stop-color="#C1440E" stop-opacity="0.410"/><stop offset="0.42" stop-color="#C1440E" stop-opacity="0.098"/><stop offset="1" stop-color="#C1440E" stop-opacity="0"/></radialGradient><radialGradient id="tp-wotan-burger" cx="24%" cy="8%" r="66%"><stop offset="0" stop-color="#D9A441" stop-opacity="0.09"/><stop offset="1" stop-color="#D9A441" stop-opacity="0"/></radialGradient><radialGradient id="vp-wotan-burger" cx="50%" cy="50%" r="76%"><stop offset="0.45" stop-color="#000" stop-opacity="0"/><stop offset="1" stop-color="#000" stop-opacity="0.55"/></radialGradient><pattern id="pp-wotan-burger" width="8" height="8" patternUnits="userSpaceOnUse" patternTransform="rotate(48)"><line x1="0" y1="0" x2="0" y2="8" stroke="#F2E9DC" stroke-opacity="0.03" stroke-width="1"/></pattern></defs><rect width="900" height="675" fill="url(#bp-wotan-burger)"/><rect width="900" height="675" fill="url(#pp-wotan-burger)"/><rect width="900" height="675" fill="url(#gp-wotan-burger)"/><rect width="900" height="675" fill="url(#tp-wotan-burger)"/><g transform="translate(385.9 246.4) scale(5.344)" fill="none" stroke="#B87333" stroke-opacity="0.36" stroke-width="2.16" stroke-linecap="round" stroke-linejoin="round"><path d="M3.5 10.2a8.5 5.2 0 0 1 17 0z"/><path d="M3.5 13.2h17"/><path d="M4.8 16.4h14.4a2 2 0 0 1-2 2H6.8a2 2 0 0 1-2-2z"/></g><rect width="900" height="675" fill="url(#vp-wotan-burger)"/></svg>